<svg xmlns="http://www.w3.org/2000/svg" viewBox="0 0 622.4 237.23"><defs><style>.cls-1{fill:#231f20;}.cls-2{fill:#0b0b0b;}</style></defs><g id="Layer_2" data-name="Layer 2"><g id="Layer_1-2" data-name="Layer 1"><path class="cls-1" d="M229.44,160.52q-9.93,10.8-27.83,10.8a40.33,40.33,0,0,1-26.06-9.11q-11.28-9.11-11.29-29.62,0-19.22,10.19-29.48t26.46-10.25a42.13,42.13,0,0,1,17.4,3.46,30,30,0,0,1,12.78,11,36.33,36.33,0,0,1,5.9,15.29c0,.31.08.64.13,1,.06-1.64.11-3.28.11-4.93A118.63,118.63,0,0,0,6.47,79.9a31.46,31.46,0,0,1,4.63-5.17q9.9-8.88,29.07-8.89,16,0,27.31,8.39T79.33,98.56H59.24q-.56-9-8.07-12.83a27.71,27.71,0,0,0-12.46-2.51q-8.28,0-13.22,3.26a10.31,10.31,0,0,0-4.94,9.09,8.58,8.58,0,0,0,4.87,8q3.13,1.77,13.29,4.14l17.56,4.14q11.55,2.72,17.3,7.26,9,7.06,9,20.43a28.69,28.69,0,0,1-10.6,22.77Q61.31,171.38,42,171.38q-19.77,0-31.08-8.92A31.08,31.08,0,0,1,7,158.8a118.65,118.65,0,0,0,222.73,1.42ZM112,168.8H92.41v-74H112ZM112,86H92.41V68.15H112Zm49.12,23.28h-12v39.09q0,4.56,1.15,5.67c.77.75,3.13,1.12,7.06,1.12l1.87,0c.66,0,1.3-.06,1.93-.1v14.45l-9.16.34q-13.71.48-18.73-4.75Q130,161.74,130,154.82V109.28H119.69V95.5H130V74.87h19.14V95.5h12Z"/><path class="cls-1" d="M19.53,137.92q1,6.86,3.82,10.25,5.19,6.18,17.81,6.18a38.46,38.46,0,0,0,12.26-1.63q8.94-3.12,8.94-11.61A8.55,8.55,0,0,0,58,133.44q-4.38-2.64-13.89-4.68l-10.83-2.38q-16-3.52-21.94-7.67-8.86-6.06-10-18.14a120.54,120.54,0,0,0-1.36,18,119.24,119.24,0,0,0,1.57,19.31Z"/><path class="cls-1" d="M191.48,152.85a19.6,19.6,0,0,0,10.66,2.79q6.62,0,10.74-3.4a16.17,16.17,0,0,0,4-5.09h16.89c.8-3.25,1.48-6.55,2-9.91h-52Q184.19,148.39,191.48,152.85Z"/><path class="cls-1" d="M212.39,112.79a17,17,0,0,0-11.47-4q-7.46,0-11.55,4.22t-5.15,11.45h33.32Q217,116.79,212.39,112.79Z"/><path class="cls-2" d="M313.61,100Q311.24,89.74,302,85.66a28.55,28.55,0,0,0-11.47-2.24,24.93,24.93,0,0,0-19.85,9.11q-7.79,9.12-7.78,27.4,0,18.44,8.42,26.08a27.64,27.64,0,0,0,19.14,7.66q10.51,0,17.24-6A26,26,0,0,0,316,131.81H292.85V115.12h41.67V168.8H320.67l-2.1-12.48q-6,7.1-10.86,10-8.28,5.06-20.36,5.06-19.89,0-32.58-13.77-13.23-13.83-13.24-37.84,0-24.28,13.38-38.94t35.36-14.65q19.07,0,30.64,9.67A36,36,0,0,1,334.18,100Z"/><path class="cls-2" d="M365.24,94.82v44.6q0,6.3,1.48,9.5,2.64,5.63,10.33,5.63,9.87,0,13.51-8a29.12,29.12,0,0,0,1.89-11.47V94.82h19.62v74h-18.8V158.35c-.18.23-.63.91-1.36,2a13.63,13.63,0,0,1-2.57,3,26.81,26.81,0,0,1-8.76,5.57,30,30,0,0,1-9.92,1.49q-16.38,0-22.06-11.81-3.18-6.51-3.18-19.2V94.82Z"/><path class="cls-2" d="M443.8,86H424.19V68.15H443.8Zm-19.61,8.82H443.8v74H424.19Z"/><path class="cls-2" d="M494.82,96a23.55,23.55,0,0,1,8.48,8.18V68.9h19.61v99.9h-18.8V158.56a27.42,27.42,0,0,1-9.43,9.57q-5.3,3-13.17,3-13,0-21.82-10.48t-8.85-26.92q0-18.93,8.72-29.79t23.31-10.86A23.87,23.87,0,0,1,494.82,96Zm4.75,52.7q4.28-6.11,4.27-15.81,0-13.58-6.85-19.41a14.79,14.79,0,0,0-9.78-3.53q-8.47,0-12.45,6.41t-4,15.92q0,10.25,4,16.39t12.25,6.14Q495.29,154.82,499.57,148.71Z"/><path class="cls-2" d="M579.47,158.7V148.6a15,15,0,0,1-3.14,3.64q-4.14,3.4-10.74,3.4a19.63,19.63,0,0,1-10.67-2.79q-7.29-4.47-7.74-15.61h32.5a12,12,0,0,1,11.79-9.78h9.44c-.11-1.88-.27-3.52-.48-4.9a36.33,36.33,0,0,0-5.9-15.29,30,30,0,0,0-12.78-11,42.13,42.13,0,0,0-17.4-3.46q-16.26,0-26.45,10.25t-10.19,29.48q0,20.52,11.28,29.62a40.35,40.35,0,0,0,26.06,9.11,41.77,41.77,0,0,0,18.35-3.78A11.92,11.92,0,0,1,579.47,158.7ZM552.81,113c2.74-2.82,6.58-4.22,11.55-4.22a17,17,0,0,1,11.47,4q4.63,4,5.15,11.69H547.66Q548.71,117.27,552.81,113Z"/><rect class="cls-2" x="585.41" y="132.39" width="36.99" height="36.99" rx="12"/></g></g></svg>